<svg xmlns="http://www.w3.org/2000/svg" width="48" height="48"><path fill="#ef4823" d="M3.746 21.482c-.078 1.981-.24 3.956-.108 5.934.233 3.475.834 7.105 3.037 9.866 1.203 1.508 2.812 2.66 4.416 3.768 2.024 1.397 4.156 2.787 6.602 3.238 1.242.229 2.52.205 3.782.131 4.225-.248 8.467-1.07 12.241-2.915 3.775-1.845 7.063-4.777 8.785-8.502 1.018-2.203 1.469-4.622 1.546-7.032.25-7.81-3.835-15.873-10.96-19.607-.819-.429-1.674-.803-2.572-1.048-1.214-.332-2.483-.426-3.742-.518-2.404-.175-4.84-.349-7.21.078S4.222 9.316 3.746 21.482z"/><path fill="#38b47b" d="M6.938 12.728c.726 3.424 2.526 6.829 4.381 9.72 1.625 2.531 2.994 4.911 4.981 7.106 0 0 6.251 8.113 14.939 0-2.003 4.541-4.901 11.736-8.452 14.749-3.64.692-11.172-.328-17.008-8.336-3.587-4.922-2.525-19.525 1.159-23.239z"/><path fill="#febf10" d="M23 44.471s8.559-11.653 9.517-19.742c.395-3.332-1.988-8.659-8.517-9.15 10.016-.087 18.088.079 18.088.079s4.588 9.886 0 17.916S30.368 43.809 23 44.471z"/><path fill="#010101" d="M36.721 8.195c-1.768-1.465-3.842-2.756-6.072-3.364-1.339-.365-2.737-.453-4.115-.553-1.444-.104-2.892-.202-4.341-.161-2.381.067-4.509.632-6.684 1.554-5.624 2.384-10.64 6.808-11.922 13.008a17.617 17.617 0 00-.34 2.804c-.205 5.03-.493 10.687 2.339 15.129 1.351 2.118 3.393 3.592 5.433 4.993 2.133 1.465 4.401 2.871 7.01 3.24 2.571.364 5.321.008 7.868-.411 2.643-.436 5.236-1.172 7.667-2.303 4.13-1.921 7.818-5.153 9.605-9.411 3.486-8.305.38-18.868-6.448-24.525zm-.533 31.294c-4.084 2.797-9.039 4.005-13.92 4.376-1.284.098-2.59.176-3.872.026-1.304-.153-2.552-.602-3.715-1.199-2.116-1.085-4.21-2.521-6.007-4.077-1.814-1.571-3.026-3.533-3.691-5.834-.67-2.322-.911-4.807-.893-7.218.01-1.361.101-2.721.157-4.08.148-3.359 1.351-6.554 3.524-9.128 1.769-2.096 4.017-3.732 6.447-4.981 1.618-.831 3.348-1.539 5.127-1.944 2.025-.461 4.17-.353 6.226-.218 1.374.09 2.773.146 4.125.421 1.226.25 2.374.735 3.467 1.337 7.377 4.06 11.346 12.952 10.206 21.189-.654 4.719-3.273 8.654-7.181 11.33z"/><path fill="#c0e6ed" d="M26.955 16.253c-2.757-.936-5.241-1.091-7.774.351s-4.335 4.345-4.487 7.436 1.408 6.24 3.931 7.703c1.171.679 2.492.999 3.81 1.177 1.414.191 2.867.225 4.247-.158 3.422-.951 5.987-4.697 5.828-8.513-.158-3.816-2.205-6.858-5.555-7.996z"/><path fill="#010101" d="M27.088 15.771c-2.014-.67-4.166-1.017-6.244-.416-1.893.548-3.525 1.749-4.702 3.317-2.365 3.15-2.612 7.558-.456 10.885 1.08 1.666 2.65 2.834 4.549 3.412 2.083.633 4.552.868 6.662.251 3.539-1.035 5.932-4.643 6.11-8.234.2-4.03-2.067-7.862-5.919-9.215zm.696 16.017c-1.728.913-3.772.888-5.656.585-1.863-.3-3.598-.976-4.88-2.403-2.346-2.614-2.66-6.555-1.008-9.602.933-1.721 2.426-3.147 4.271-3.847 2.087-.793 4.245-.472 6.311.216 3.013 1.058 4.862 3.831 5.151 6.956.297 3.207-1.29 6.563-4.189 8.095z"/><path fill="#4b7bb2" d="M22.546 18.596c-2.647 0-4.935 2.884-4.921 5.808.007 1.388.507 2.802 1.47 3.693.763.705 1.743 1.04 2.695 1.358 1.691.565 3.56 1.122 5.174.328 1.825-.897 2.713-3.347 2.496-5.541-.242-2.451-1.271-5.646-6.914-5.646z"/><path fill="#010101" d="M29.164 21.271c-1.271-2.453-4.047-3.158-6.617-3.176-2.842.062-4.966 2.71-5.349 5.369-.215 1.495.084 3.118.987 4.351.955 1.304 2.487 1.812 3.966 2.284 1.542.493 3.264.886 4.82.227 1.264-.535 2.112-1.669 2.584-2.927.716-1.915.553-4.304-.391-6.128zm-1.389 7.253c-.936 1.07-2.29 1.297-3.642 1.061-1.328-.232-2.844-.673-4.013-1.356-1.173-.685-1.821-1.928-1.964-3.257-.278-2.583 1.548-5.815 4.391-5.876 1.917.013 4.086.37 5.326 1.994.875 1.145 1.188 2.764 1.111 4.178-.064 1.153-.437 2.374-1.209 3.256zM23.6 16.048c2.981.01 5.961-.018 8.942-.044 1.443-.012 2.887-.024 4.33-.029.773-.003 1.547-.004 2.32-.002.778.002 1.562-.032 2.321.168.623.164.889-.8.266-.964-1.408-.371-2.978-.206-4.421-.203-1.526.004-3.051.015-4.577.028-3.06.026-6.121.056-9.181.046-.644-.002-.644.998 0 1zM31.418 27.699c-2.147 5.8-5.077 11.285-8.619 16.352-.37.529.497 1.029.863.505 3.593-5.14 6.542-10.708 8.72-16.591.224-.605-.742-.866-.964-.266zM6.455 12.861c.711 3.249 2.222 6.277 3.96 9.09 1.692 2.739 3.375 5.551 5.531 7.956.43.48 1.136-.229.707-.707-2.098-2.34-3.728-5.089-5.375-7.754-1.697-2.745-3.165-5.681-3.859-8.851-.137-.628-1.101-.362-.964.266z"/></svg>